<svg xmlns="http://www.w3.org/2000/svg" viewBox="0.09444451332092285 11.550000190734863 123.5069808959961 44.54999923706055" data-asc="0.92"><g fill="#1d4ed8"><g fill="#1d4ed8" transform="translate(0, 0)"><path d="M17.25 43.35Q16.80 43.35 15.95 43.05Q15 42.70 13.48 42.05Q11.95 41.40 10.18 40.60Q8.40 39.80 6.70 38.98Q5 38.15 3.65 37.45Q2.30 36.75 1.70 36.35Q0 35.20 0.10 33.75Q0.15 33.05 0.55 32.42Q0.95 31.80 1.90 31.15Q2.70 30.65 4.47 29.75Q6.25 28.85 8.43 27.85Q10.60 26.85 12.60 25.92Q14.60 25 15.80 24.50Q16.70 24.10 17.25 24.10Q18.30 24.10 18.85 25.20Q19.40 26.30 19.40 27.40Q19.35 28.80 17.80 29.35L5.30 33.80L16.65 38Q17.70 38.35 18.20 39.20Q18.70 40.05 18.70 41.65Q18.70 42.40 18.35 42.88Q18 43.35 17.25 43.35ZM26.75 46.55Q25.40 46.55 25.05 45.95Q24.70 45.35 24.90 44.25Q25.65 40.55 26.20 36.20Q26.75 31.85 26.75 27.45Q26.75 24.45 26.53 22.10Q26.30 19.75 25.05 17.70Q24.85 17.40 24.73 17.13Q24.60 16.85 24.60 16.65Q24.60 16 25.33 15.38Q26.05 14.75 27.05 14.30Q28.05 13.85 28.95 13.85Q30.15 13.85 30.68 14.65Q31.20 15.45 31.30 16.63Q31.40 17.80 31.40 19Q31.40 20.20 31.28 21.67Q31.15 23.15 31 24.90Q30.75 27.20 30.50 29.93Q30.25 32.65 30.25 35.60Q30.25 38.95 30.50 41.08Q30.75 43.20 30.85 43.85Q31 44.70 30.35 45.30Q29.70 45.90 28.70 46.23Q27.70 46.55 26.75 46.55M45.80 46.45Q43.80 46.45 41.98 45.45Q40.15 44.45 38.55 42.85Q36.95 41.25 35.68 39.35Q34.40 37.45 33.48 35.60Q32.55 33.75 32.10 32.35Q31.65 31 31.65 30Q31.65 28.90 32.45 27.35Q33.10 26.15 34.35 24.45Q35.60 22.75 37.23 20.90Q38.85 19.05 40.63 17.45Q42.40 15.85 44.20 14.85Q46 13.85 47.55 13.85Q48.95 13.85 49.58 14.67Q50.20 15.50 50.20 16.55Q50.20 17.40 49.85 18.35Q49.50 19.30 48.90 19.95Q48.30 20.60 47.50 20.60Q47 20.60 46.58 20.47Q46.15 20.35 45.50 20.35Q44.85 20.35 43.98 20.60Q43.10 20.85 42.05 21.55Q41.20 22.15 39.95 23.32Q38.70 24.50 37.40 26Q36.10 27.50 35 29.20Q35.70 30.90 36.90 32.63Q38.10 34.35 39.40 35.85Q41.75 38.55 43.93 39.80Q46.10 41.05 49.25 41.05Q49.90 41.05 50.13 41.35Q50.35 41.65 50.35 42.30Q50.35 43.75 49.28 45.10Q48.20 46.45 45.80 46.45ZM65.30 46.65Q61.85 46.65 59.10 45.10Q56.35 43.55 54.75 40.60Q53.15 37.65 53.15 33.45Q53.15 29.65 54.43 26.13Q55.70 22.60 58.05 19.77Q60.40 16.95 63.75 15.30Q67.10 13.65 71.20 13.65Q74.20 13.65 76.20 14.60Q78.20 15.55 78.20 17.40Q78.20 18.30 77.73 19.17Q77.25 20.05 76.50 20.65Q75.75 21.25 74.95 21.25Q74.45 21.25 74.15 21Q71.55 19.25 68.25 19.25Q64.75 19.25 62.35 20.88Q59.95 22.50 58.73 25.15Q57.50 27.80 57.50 30.90Q57.50 35.55 60.13 38.30Q62.75 41.05 67.15 41.05Q69.05 41.05 70.70 40.50Q72.35 39.95 73.40 38.90Q74.45 37.85 74.45 36.35Q74.45 34.85 73.55 34.05Q72.65 33.25 71.20 32.88Q69.75 32.50 68.05 32.40Q66.85 32.30 66.28 32.10Q65.70 31.90 65.70 30.90Q65.70 29.70 66.45 28.90Q67.20 28.10 68.30 28Q69.80 27.85 71.90 27.77Q74 27.70 76.28 27.68Q78.55 27.65 80.55 27.65Q81.20 27.65 81.55 27.88Q81.90 28.10 81.90 28.80Q81.90 29.65 81.53 30.65Q81.15 31.65 80.50 32.35Q79.85 33.05 79 33.05L78.20 33.05Q78.35 33.55 78.48 34.17Q78.60 34.80 78.60 35.60Q78.60 37.80 77.55 39.77Q76.50 41.75 74.65 43.30Q72.80 44.85 70.40 45.75Q68 46.65 65.30 46.65ZM83.20 56.10Q82.25 56.10 81.40 55.65Q80.55 55.20 80.55 54.25Q80.55 53.50 81.05 52.30Q81.60 50.75 82.58 48.60Q83.55 46.45 85.08 43.02Q86.60 39.60 88.85 34.20Q89.80 31.90 90.85 29.40Q91.90 26.90 92.85 24.57Q93.80 22.25 94.40 20.60Q95.10 18.90 95.53 17.55Q95.95 16.20 96.15 15.40Q96.40 14.55 96.55 13.90Q96.70 13.25 96.75 12.95Q96.95 12.40 97.68 11.98Q98.40 11.55 99.35 11.55Q100.30 11.55 100.95 11.98Q101.60 12.40 101.60 13.40Q101.60 14.25 101.18 15.57Q100.75 16.90 100.00 18.80Q99.65 19.65 98.90 21.32Q98.15 23 97.18 25.13Q96.20 27.25 95.18 29.57Q94.15 31.90 93.25 34.05Q91.40 38.55 90.18 41.58Q88.95 44.60 88.20 46.45Q87.45 48.30 87.00 49.45Q86.20 51.55 85.98 52.73Q85.75 53.90 85.45 54.60Q85.25 55.30 84.63 55.70Q84.00 56.10 83.20 56.10ZM105.75 43.35Q104.95 43.35 104.68 42.88Q104.40 42.40 104.40 41.65Q104.45 40.05 105.08 39.20Q105.70 38.35 106.75 38L118.30 33.85L106.15 29.35Q105.50 29.05 105.10 28.60Q104.70 28.15 104.75 27.40Q104.80 26.30 105.43 25.20Q106.05 24.10 107.05 24.10Q107.65 24.10 108.55 24.50Q109.75 25 111.68 25.92Q113.60 26.85 115.68 27.85Q117.75 28.85 119.48 29.75Q121.20 30.65 121.95 31.15Q123.65 32.40 123.60 33.75Q123.50 35.20 121.75 36.35Q121.10 36.75 119.73 37.45Q118.35 38.15 116.60 38.98Q114.85 39.80 113.00 40.60Q111.15 41.40 109.58 42.05Q108.00 42.70 107.05 43.05Q106.25 43.35 105.75 43.35Z"/></g></g></svg>